<?xml version="1.0" encoding="UTF-8" standalone="no"?> <svg id="Layer_1" data-name="Layer 1" xmlns="http://www.w3.org/2000/svg" viewBox="0 0 64 64"><rect x="20" y="31" width="14" height="11" fill="#d98d8e"/><path d="M60.817,37.157l-1.386-.45a1,1,0,0,1-.676-1.094,26.763,26.763,0,0,0,0-7.226,1,1,0,0,1,.676-1.094l1.386-.45a1,1,0,0,0,.642-1.26l-1.854-5.707a1,1,0,0,0-1.26-.642l-1.388.451a1,1,0,0,1-1.186-.486,27.089,27.089,0,0,0-4.252-5.848,1,1,0,0,1-.1-1.279l.859-1.182a1,1,0,0,0-.221-1.4L47.206,5.966a1,1,0,0,0-1.4.221l-.857,1.18a1,1,0,0,1-1.247.3,26.821,26.821,0,0,0-6.875-2.236A1,1,0,0,1,36,4.455V3a1,1,0,0,0-1-1H29a1,1,0,0,0-1,1V4.455a1,1,0,0,1-.831.979A26.821,26.821,0,0,0,20.294,7.67a1,1,0,0,1-1.247-.3l-.857-1.18a1,1,0,0,0-1.4-.221L11.939,9.493a1,1,0,0,0-.221,1.4l.859,1.182a1,1,0,0,1-.1,1.279A27.089,27.089,0,0,0,8.229,19.2a1,1,0,0,1-1.186.486l-1.388-.451a1,1,0,0,0-1.26.642L2.541,25.583a1,1,0,0,0,.642,1.26l1.386.45a1,1,0,0,1,.676,1.094,26.763,26.763,0,0,0,0,7.226,1,1,0,0,1-.676,1.094l-1.386.45a1,1,0,0,0-.642,1.26l1.854,5.707a1,1,0,0,0,1.26.642l1.388-.451a1,1,0,0,1,1.186.486,27.089,27.089,0,0,0,4.252,5.848,1,1,0,0,1,.1,1.279l-.859,1.182a1,1,0,0,0,.221,1.4l4.855,3.527a1,1,0,0,0,1.4-.221l.857-1.18a1,1,0,0,1,1.247-.3,26.821,26.821,0,0,0,6.875,2.236,1,1,0,0,1,.831.979V61a1,1,0,0,0,1,1h6a1,1,0,0,0,1-1V59.545a1,1,0,0,1,.831-.979,26.821,26.821,0,0,0,6.875-2.236,1,1,0,0,1,1.247.3l.857,1.18a1,1,0,0,0,1.4.221l4.855-3.527a1,1,0,0,0,.221-1.4l-.859-1.182a1,1,0,0,1,.1-1.279A27.089,27.089,0,0,0,55.771,44.8a1,1,0,0,1,1.186-.486l1.388.451a1,1,0,0,0,1.26-.642l1.854-5.707A1,1,0,0,0,60.817,37.157ZM32,54A22,22,0,1,1,54,32,22,22,0,0,1,32,54Z" fill="#7d97b3"/><path d="M45.5,25A4,4,0,1,0,40,28.7v3.025l-1.6,1.6,1.6,1.6-1.6,1.6,1.6,1.6V40l1.5,2L43,40V28.7A4,4,0,0,0,45.5,25Z" fill="#85ccbe"/><path d="M34,30H33V26a6,6,0,0,0-12,0v4H20a1,1,0,0,0-1,1V42a1,1,0,0,0,1,1H34a1,1,0,0,0,1-1V31A1,1,0,0,0,34,30ZM23,26a4,4,0,1,1,8,0v4H23ZM33,41H21V32H33Z" fill="#404040"/><path d="M53.448,54.012a1.988,1.988,0,0,0-.357-1.49l-.849-1.182a27.868,27.868,0,0,0,4.407-6.073l1.386.45a2,2,0,0,0,2.521-1.284l1.854-5.707a2,2,0,0,0-1.284-2.52l-1.381-.459A27.841,27.841,0,0,0,60,32a27.28,27.28,0,0,0-.26-3.756l1.386-.45a2,2,0,0,0,1.284-2.52l-1.854-5.707a2,2,0,0,0-2.52-1.284l-1.385.441a27.818,27.818,0,0,0-4.419-6.064l.859-1.182a2,2,0,0,0-.443-2.793L47.794,5.156A2,2,0,0,0,45,5.6l-.86,1.17A27.555,27.555,0,0,0,37,4.455V3a2,2,0,0,0-2-2H29a2,2,0,0,0-2,2l-.009,1.449a27.638,27.638,0,0,0-7.135,2.329L19,5.6a2,2,0,0,0-2.794-.443L11.352,8.684a2,2,0,0,0-.443,2.794l.849,1.182a27.868,27.868,0,0,0-4.407,6.073l-1.386-.45a2,2,0,0,0-2.521,1.284L1.59,25.274a2,2,0,0,0,1.284,2.52l1.381.459A27.841,27.841,0,0,0,4,32a27.28,27.28,0,0,0,.26,3.756l-1.386.45a2,2,0,0,0-1.284,2.52l1.854,5.707a2,2,0,0,0,2.52,1.284l1.385-.441a27.818,27.818,0,0,0,4.419,6.064l-.859,1.182a2,2,0,0,0,.443,2.793l4.854,3.529A2,2,0,0,0,19,58.4l.86-1.17A27.555,27.555,0,0,0,27,59.545V61a2,2,0,0,0,2,2h6a2,2,0,0,0,2-2l.009-1.449a27.638,27.638,0,0,0,7.135-2.329L45,58.4a2,2,0,0,0,2.794.443l4.854-3.527A1.985,1.985,0,0,0,53.448,54.012Zm-6.829,3.213-.857-1.179a2,2,0,0,0-2.491-.616,25.867,25.867,0,0,1-6.616,2.152A2,2,0,0,0,35,59.545V61H29V59.545a2,2,0,0,0-1.654-1.963,25.861,25.861,0,0,1-6.617-2.152,2,2,0,0,0-2.491.616l-.857,1.18L12.527,53.7l.859-1.182a2,2,0,0,0-.182-2.558,26.1,26.1,0,0,1-4.1-5.631,2,2,0,0,0-2.375-.963l-1.387.451L3.492,38.108l1.385-.45a2,2,0,0,0,1.359-2.179,25.707,25.707,0,0,1,0-6.958,2,2,0,0,0-1.359-2.179l-1.386-.45,1.855-5.706,1.386.45a2,2,0,0,0,2.376-.963,26.1,26.1,0,0,1,4.1-5.631,2,2,0,0,0,.182-2.558L12.527,10.3l4.854-3.527.857,1.179a2,2,0,0,0,2.491.616,25.867,25.867,0,0,1,6.616-2.152A2,2,0,0,0,29,4.455V3h6V4.455a2,2,0,0,0,1.654,1.963A25.861,25.861,0,0,1,43.271,8.57a2,2,0,0,0,2.491-.616l.857-1.18L51.473,10.3l-.859,1.182a2,2,0,0,0,.182,2.558,26.1,26.1,0,0,1,4.095,5.631,2,2,0,0,0,2.375.963l1.387-.451,1.855,5.707-1.385.45a2,2,0,0,0-1.359,2.179,25.707,25.707,0,0,1,0,6.958,2,2,0,0,0,1.359,2.179l1.386.45-1.855,5.706-1.386-.45a2,2,0,0,0-2.376.963A26.1,26.1,0,0,1,50.8,49.958a2,2,0,0,0-.182,2.558l.859,1.182Z" fill="#404040"/><path d="M32,9A23,23,0,1,0,55,32,23.026,23.026,0,0,0,32,9Zm0,44A21,21,0,1,1,53,32,21.024,21.024,0,0,1,32,53Z" fill="#404040"/><rect x="26" y="35" width="2" height="3" fill="#404040"/><path d="M41.5,20A5,5,0,0,0,39,29.326v1.987l-1.307,1.308a1,1,0,0,0,0,1.414l.893.893-.893.893a1,1,0,0,0,0,1.414L39,38.542V40a1,1,0,0,0,.2.6l1.5,2a1,1,0,0,0,1.6,0l1.5-2A1,1,0,0,0,44,40V29.326A5,5,0,0,0,41.5,20Zm1.125,7.776A1,1,0,0,0,42,28.7V39.667l-.5.666-.5-.666V38.128a1,1,0,0,0-.293-.707l-.893-.893.893-.893a1,1,0,0,0,0-1.414l-.893-.893.893-.893A1,1,0,0,0,41,31.728V28.7a1,1,0,0,0-.625-.927,3,3,0,1,1,2.25,0Z" fill="#404040"/><circle cx="41.5" cy="24" r="1" fill="#404040"/></svg>