<?xml version="1.0" encoding="UTF-8" standalone="no"?> <svg id="Layer_1" data-name="Layer 1" xmlns="http://www.w3.org/2000/svg" viewBox="0 0 64 64"><path d="M30.5,28.5V30h3V28.5a1.5,1.5,0,0,0-3,0Z"/><path d="M21,32A11,11,0,1,0,32,21,11,11,0,0,0,21,32Zm14.5-3.5V30H36a1,1,0,0,1,1,1v6a1,1,0,0,1-1,1H28a1,1,0,0,1-1-1V31a1,1,0,0,1,1-1h.5V28.5a3.5,3.5,0,0,1,7,0Z"/><rect x="27" y="7" width="2" height="2"/><rect x="31" y="7" width="2" height="2"/><rect x="31" y="11" width="2" height="2"/><rect x="31" y="15" width="2" height="2"/><rect x="35" y="55" width="2" height="2"/><rect x="31" y="55" width="2" height="2"/><rect x="31" y="51" width="2" height="2"/><rect x="31" y="47" width="2" height="2"/><path d="M41,45.5V59l-1.247,3.324a.5.5,0,0,0,.468.676H61.779a.5.5,0,0,0,.468-.676L61,59V45.5a.5.5,0,0,0-.5-.5h-19A.5.5,0,0,0,41,45.5Zm1.5,1h17v11h-17Z"/><path d="M2.221,19H23.779a.5.5,0,0,0,.468-.676L23,15V1.5a.5.5,0,0,0-.5-.5H3.5a.5.5,0,0,0-.5.5V15L1.753,18.324A.5.5,0,0,0,2.221,19ZM4.5,2.5h17v11H4.5Z"/></svg>