<?xml version="1.0" encoding="UTF-8" standalone="no"?> <svg id="gradient" xmlns="http://www.w3.org/2000/svg" xmlns:xlink="http://www.w3.org/1999/xlink" viewBox="0 0 512 512"><defs><linearGradient id="linear-gradient" x1="-74.26" y1="320" x2="451.765" y2="320" gradientUnits="userSpaceOnUse"><stop offset="0" stop-color="#3bfff1"/><stop offset="0.116" stop-color="#41faf1"/><stop offset="0.272" stop-color="#52ebf3"/><stop offset="0.45" stop-color="#6ed2f5"/><stop offset="0.646" stop-color="#95b0f8"/><stop offset="0.852" stop-color="#c785fc"/><stop offset="1" stop-color="#ef62ff"/></linearGradient><linearGradient id="linear-gradient-2" x1="-74.26" y1="440" x2="451.765" y2="440" xlink:href="#linear-gradient"/><linearGradient id="linear-gradient-3" x1="-74.26" y1="384" x2="451.765" y2="384" xlink:href="#linear-gradient"/><linearGradient id="linear-gradient-7" x1="-74.26" y1="84" x2="451.765" y2="84" xlink:href="#linear-gradient"/><linearGradient id="linear-gradient-8" x1="-74.26" y1="68" x2="451.765" y2="68" xlink:href="#linear-gradient"/><linearGradient id="linear-gradient-9" x1="-74.26" y1="120" x2="451.765" y2="120" xlink:href="#linear-gradient"/><linearGradient id="linear-gradient-10" x1="-74.26" y1="248" x2="451.765" y2="248" xlink:href="#linear-gradient"/><linearGradient id="linear-gradient-11" x1="-74.26" y1="162.829" x2="451.765" y2="162.829" xlink:href="#linear-gradient"/><linearGradient id="linear-gradient-12" x1="-74.26" y1="232" x2="451.765" y2="232" xlink:href="#linear-gradient"/><linearGradient id="linear-gradient-13" x1="-74.26" y1="208" x2="451.765" y2="208" xlink:href="#linear-gradient"/><linearGradient id="linear-gradient-14" x1="-74.26" y1="256" x2="451.765" y2="256" xlink:href="#linear-gradient"/><linearGradient id="linear-gradient-15" x1="-74.26" y1="296" x2="451.765" y2="296" xlink:href="#linear-gradient"/><linearGradient id="linear-gradient-16" x1="-74.26" y1="220" x2="451.765" y2="220" xlink:href="#linear-gradient"/></defs><path d="M200,360a8,8,0,0,0-8,8V488a8,8,0,0,0,8,8H408a8,8,0,0,0,8-8V344a8,8,0,0,0-8-8H392V307.313l13.657-13.656A8,8,0,0,0,408,288V256H392v28.687l-13.657,13.656A8,8,0,0,0,376,304v32H360V291.313l13.657-13.656A8,8,0,0,0,376,272V238.624a23.98,23.98,0,0,0,10.539-37.848l11.118-11.119A8,8,0,0,0,400,184V144H384v36.687l-11.707,11.7A24,24,0,0,0,360,238.624v30.063l-13.657,13.656A8,8,0,0,0,344,288v48H320V288H304v48h-2.286a8,8,0,0,0-5.793,2.482L288,346.8V328a8,8,0,0,0-8-8H264V296H248v32a8,8,0,0,0,8,8h16v24H232V296H216v35.056l-16-8V304H184v24a8,8,0,0,0,4.422,7.155L216,348.944V360ZM368,208a8,8,0,1,1-8,8A8.009,8.009,0,0,1,368,208ZM305.143,352H400V480H208V376h16v24a8,8,0,0,0,8,8h32a8,8,0,0,0,8-8V376h6.857a8,8,0,0,0,5.793-2.482ZM256,376v16H240V376Z" style="fill:url(#linear-gradient)"/><path d="M280,424v32a8,8,0,0,0,8,8h32a8,8,0,0,0,8-8V424a8,8,0,0,0-8-8H288A8,8,0,0,0,280,424Zm16,8h16v16H296Z" style="fill:url(#linear-gradient-2)"/><path d="M344,408h32a8,8,0,0,0,8-8V368a8,8,0,0,0-8-8H344a8,8,0,0,0-8,8v32A8,8,0,0,0,344,408Zm8-32h16v16H352Z" style="fill:url(#linear-gradient-3)"/><rect x="296" y="368" width="16" height="32" style="fill:url(#linear-gradient-3)"/><rect x="352" y="424" width="16" height="32" style="fill:url(#linear-gradient-2)"/><rect x="240" y="424" width="16" height="32" style="fill:url(#linear-gradient-2)"/><path d="M296,48a72.081,72.081,0,0,0-72,72h16a56,56,0,0,1,112,0h16A72.081,72.081,0,0,0,296,48Z" style="fill:url(#linear-gradient-7)"/><path d="M296,16A104.118,104.118,0,0,0,192,120h16a88,88,0,0,1,176,0h16A104.118,104.118,0,0,0,296,16Z" style="fill:url(#linear-gradient-8)"/><path d="M336,96a8,8,0,0,0-4.422-7.155l-32-16a8,8,0,0,0-7.156,0l-32,16A8,8,0,0,0,256,96v48a8,8,0,0,0,4.422,7.155l32,16a8,8,0,0,0,7.156,0l32-16A8,8,0,0,0,336,144Zm-40-7.056L310.111,96,296,103.056,281.889,96Zm-24,20,16,8v30.112l-16-8Zm32,38.112V116.944l16-8v30.112Z" style="fill:url(#linear-gradient-9)"/><path d="M152,224a24,24,0,1,0,24,24A24.028,24.028,0,0,0,152,224Zm0,32a8,8,0,1,1,8-8A8.009,8.009,0,0,1,152,256Z" style="fill:url(#linear-gradient-10)"/><path d="M365.657,173.657A8,8,0,0,0,368,168V136H352v28.687l-13.657,13.656,11.314,11.314Z" style="fill:url(#linear-gradient-11)"/><rect x="392" y="224" width="16" height="16" style="fill:url(#linear-gradient-12)"/><rect x="320" y="200" width="16" height="16" style="fill:url(#linear-gradient-13)"/><rect x="328" y="248" width="16" height="16" style="fill:url(#linear-gradient-14)"/><rect x="280" y="288" width="16" height="16" style="fill:url(#linear-gradient-15)"/><path d="M232,216H197.943a56,56,0,1,0,0,64H232a8,8,0,0,0,5.657-2.343L248,267.313l10.343,10.344a8,8,0,0,0,11.314,0L280,267.313l10.343,10.344a8,8,0,0,0,11.314,0l16-16A8,8,0,0,0,320,256V224a8,8,0,0,0-8-8H280V200h32a8,8,0,0,0,8-8V168H304v16H272a8,8,0,0,0-8,8v24H248V192a8,8,0,0,0-2.343-5.657l-16-16a24.009,24.009,0,1,0-11.315,11.315L232,195.313Zm72,36.687-8,8-10.343-10.344a8,8,0,0,0-11.314,0L264,260.687l-10.343-10.344a8,8,0,0,0-11.314,0L228.687,264H193.562a8,8,0,0,0-6.923,3.993,40,40,0,1,1,0-39.986A8,8,0,0,0,193.562,232H304ZM208,168a8,8,0,1,1,8-8A8.009,8.009,0,0,1,208,168Z" style="fill:url(#linear-gradient-16)"/></svg>